<svg width="25" height="25" viewBox="0 0 25 25" fill="none" xmlns="http://www.w3.org/2000/svg">
<g clip-path="url(#clip0)">
<path d="M3.51797 0C1.56922 0 0 1.56922 0 3.51797V21.482C0 23.4308 1.56922 25 3.51797 25H21.482C23.4308 25 25 23.4308 25 21.482V3.51797C25 1.56922 23.4308 0 21.482 0H3.51797ZM13.0602 2.5547C15.8973 2.5547 18.2039 4.8623 18.2039 7.69922C18.2039 10.5359 15.8973 12.8422 13.0602 12.8422C10.223 12.8422 7.91485 10.5359 7.91485 7.69922C7.91485 4.8623 10.223 2.5547 13.0602 2.5547ZM13.0055 5.56877C11.8563 5.59802 10.9297 6.54337 10.9297 7.69925C10.9297 8.87297 11.8857 9.82815 13.0602 9.82815C14.2344 9.82815 15.1891 8.87297 15.1891 7.69925C15.1891 6.52505 14.2344 5.56877 13.0602 5.56877C13.0418 5.56877 13.0237 5.5683 13.0055 5.56877ZM8.80077 13.0172C9.07327 13.0182 9.3482 13.0931 9.5961 13.2492C11.7018 14.5733 14.4163 14.5742 16.5227 13.2492C17.2279 12.8051 18.1574 13.0183 18.6016 13.7235C19.0452 14.4275 18.8321 15.3582 18.1273 15.8016C17.2085 16.3791 16.1987 16.7972 15.1406 17.0383L18.0172 19.9149C18.6061 20.5025 18.6061 21.4576 18.0172 22.0461C17.428 22.6349 16.4748 22.6349 15.8867 22.0461L13.0586 19.2196L10.2336 22.0461C9.93942 22.3404 9.55342 22.4875 9.16797 22.4875C8.78212 22.4875 8.39742 22.34 8.10235 22.0461C7.51357 21.4572 7.51375 20.5038 8.10235 19.9149L10.9773 17.0383C9.9304 16.7996 8.9202 16.3853 7.98985 15.8016C7.2865 15.3582 7.075 14.4284 7.51875 13.7235C7.7953 13.2828 8.2625 13.0338 8.7461 13.018C8.76433 13.0174 8.78256 13.0171 8.8008 13.0172H8.80077Z" fill="white"/>
</g>
<defs>
<clipPath id="clip0">
<rect width="25" height="25" fill="white"/>
</clipPath>
</defs>
</svg>
