<svg width="25" height="25" viewBox="0 0 25 25" fill="none" xmlns="http://www.w3.org/2000/svg">
<path d="M22.6562 0H2.34375C1.05469 0 0 1.05469 0 2.34375V22.6562C0 23.9453 1.05469 25 2.34375 25H22.6562C23.9453 25 25 23.9453 25 22.6562V2.34375C25 1.05469 23.9453 0 22.6562 0ZM20.2484 17.5L17.9625 17.5344C17.9625 17.5344 17.4688 17.6328 16.825 17.1875C15.9703 16.6016 15.1641 15.0734 14.5344 15.2734C13.9 15.4734 13.9187 16.8453 13.9187 16.8453C13.9187 16.8453 13.9234 17.1391 13.7766 17.2937C13.6203 17.4641 13.3078 17.4984 13.3078 17.4984H12.2875C12.2875 17.4984 10.0312 17.6359 8.04375 15.5641C5.875 13.3078 3.9625 8.83125 3.9625 8.83125C3.9625 8.83125 3.85 8.5375 3.97188 8.39688C4.10781 8.23594 4.475 8.22656 4.475 8.22656L6.92187 8.2125C6.92187 8.2125 7.15156 8.25156 7.31719 8.37344C7.45469 8.47188 7.52656 8.66094 7.52656 8.66094C7.52656 8.66094 7.92188 9.6625 8.44531 10.5656C9.46563 12.3281 9.94375 12.7141 10.2906 12.5281C10.7937 12.2547 10.6422 10.0328 10.6422 10.0328C10.6422 10.0328 10.6516 9.22656 10.3891 8.87031C10.1844 8.59219 9.79844 8.50938 9.63281 8.48906C9.49531 8.46875 9.72031 8.15156 10.0141 8.00625C10.4531 7.79063 11.2297 7.77656 12.1484 7.78594C12.8609 7.79062 13.0719 7.83906 13.35 7.90313C14.1953 8.10781 13.9062 8.89375 13.9062 10.7797C13.9062 11.3859 13.7984 12.2344 14.2328 12.5125C14.4188 12.6344 14.8766 12.5312 16.025 10.5844C16.5672 9.66094 16.9766 8.57812 16.9766 8.57812C16.9766 8.57812 17.0641 8.38281 17.2016 8.3C17.3438 8.21719 17.5344 8.24219 17.5344 8.24219L20.1078 8.22812C20.1078 8.22812 20.8797 8.13594 21.0063 8.4875C21.1375 8.85313 20.7188 9.70781 19.6688 11.1094C17.9453 13.4094 17.75 13.1937 19.1859 14.5219C20.5531 15.7922 20.8359 16.4109 20.8859 16.4891C21.4422 17.4266 20.2516 17.5 20.2516 17.5H20.2484Z" fill="white"/>
</svg>
