<svg width="137" height="40" viewBox="0 0 137 40" fill="none" xmlns="http://www.w3.org/2000/svg">
<rect x="0.5" y="0.5" width="135.108" height="39" rx="19.5" fill="white"/>
<path d="M34.2905 19.2969C34.3009 18.4931 34.515 17.705 34.9129 17.0058C35.3108 16.3067 35.8796 15.7193 36.5663 15.2983C36.1301 14.677 35.5545 14.1656 34.8854 13.8049C34.2163 13.4442 33.4721 13.2441 32.7119 13.2203C31.0902 13.0506 29.518 14.188 28.6916 14.188C27.8492 14.188 26.5768 13.2372 25.2067 13.2653C24.3204 13.2939 23.4567 13.5508 22.6997 14.0112C21.9426 14.4716 21.3181 15.1197 20.8869 15.8924C19.0192 19.117 20.4124 23.8562 22.2015 26.4628C23.0967 27.7392 24.1428 29.1649 25.5117 29.1144C26.8513 29.059 27.3516 28.2626 28.9686 28.2626C30.5705 28.2626 31.0399 29.1144 32.4366 29.0822C33.874 29.059 34.7796 27.8002 35.6433 26.5117C36.2865 25.6023 36.7814 24.5971 37.1098 23.5335C36.2747 23.1813 35.562 22.5917 35.0607 21.8384C34.5593 21.085 34.2915 20.2011 34.2905 19.2969Z" fill="#038C73"/>
<path d="M31.6525 11.5061C32.4362 10.5679 32.8223 9.36198 32.7288 8.14447C31.5314 8.26988 30.4254 8.84054 29.6311 9.74275C29.2427 10.1835 28.9453 10.6963 28.7557 11.2517C28.5662 11.8072 28.4883 12.3944 28.5265 12.9799C29.1254 12.9861 29.7179 12.8566 30.2594 12.6013C30.8009 12.346 31.2772 11.9716 31.6525 11.5061Z" fill="#038C73"/>
<path d="M51.2234 25.8832H46.6522L45.5544 29.1156H43.6182L47.948 17.1565H49.9597L54.2895 29.1156H52.3203L51.2234 25.8832ZM47.1256 24.3916H50.7491L48.9628 19.1456H48.9128L47.1256 24.3916Z" fill="#038C73"/>
<path d="M63.6405 24.7565C63.6405 27.466 62.1863 29.2068 59.9916 29.2068C59.4357 29.2358 58.8828 29.1081 58.3963 28.8383C57.9097 28.5685 57.5092 28.1676 57.2406 27.6813H57.199V32H55.4043V20.3964H57.1415V21.8466H57.1746C57.4555 21.3627 57.8628 20.9639 58.3531 20.6924C58.8433 20.421 59.3982 20.2872 59.9586 20.3052C62.1777 20.3052 63.6405 22.0545 63.6405 24.7565ZM61.7958 24.7565C61.7958 22.9912 60.881 21.8307 59.4852 21.8307C58.1139 21.8307 57.1915 23.0156 57.1915 24.7565C57.1915 26.5133 58.1139 27.6898 59.4852 27.6898C60.881 27.6898 61.7958 26.5377 61.7958 24.7565Z" fill="#038C73"/>
<path d="M73.2641 24.7565C73.2641 27.466 71.8098 29.2068 69.6152 29.2068C69.0592 29.2358 68.5063 29.1081 68.0198 28.8383C67.5333 28.5685 67.1327 28.1675 66.8641 27.6813H66.8226V32H65.0278V20.3964H66.765V21.8466H66.798C67.079 21.3627 67.4863 20.9638 67.9766 20.6924C68.4668 20.421 69.0217 20.2872 69.5821 20.3052C71.8013 20.3052 73.2641 22.0545 73.2641 24.7565ZM71.4193 24.7565C71.4193 22.9912 70.5045 21.8306 69.1087 21.8306C67.7374 21.8306 66.8151 23.0156 66.8151 24.7565C66.8151 26.5133 67.7374 27.6898 69.1087 27.6898C70.5045 27.6898 71.4193 26.5377 71.4193 24.7565H71.4193Z" fill="#038C73"/>
<path d="M79.6243 25.7835C79.7573 26.9694 80.9126 27.7481 82.4914 27.7481C84.0042 27.7481 85.0925 26.9694 85.0925 25.9001C85.0925 24.9718 84.4361 24.416 82.8818 24.0351L81.3276 23.6617C79.1254 23.1313 78.1031 22.1043 78.1031 20.4378C78.1031 18.3744 79.9063 16.9571 82.4669 16.9571C85.001 16.9571 86.7382 18.3744 86.7967 20.4378H84.985C84.8765 19.2443 83.8872 18.5239 82.4414 18.5239C80.9956 18.5239 80.0063 19.2528 80.0063 20.3137C80.0063 21.1591 80.6382 21.6567 82.1839 22.0375L83.5052 22.361C85.9658 22.9413 86.9881 23.9269 86.9881 25.6762C86.9881 27.9136 85.2009 29.3149 82.3584 29.3149C79.6988 29.3149 77.9031 27.9465 77.7871 25.7834L79.6243 25.7835Z" fill="#038C73"/>
<path d="M90.8617 18.333V20.3964H92.5244V21.8137H90.8617V26.6205C90.8617 27.3672 91.1946 27.7152 91.9255 27.7152C92.1229 27.7118 92.32 27.6979 92.5159 27.6738V29.0826C92.1873 29.1438 91.8533 29.1716 91.519 29.1654C89.7488 29.1654 89.0584 28.5023 89.0584 26.8114V21.8137H87.7871V20.3964H89.0584V18.333H90.8617Z" fill="#038C73"/>
<path d="M93.4873 24.7564C93.4873 22.0131 95.1076 20.2892 97.6342 20.2892C100.169 20.2892 101.782 22.013 101.782 24.7564C101.782 27.5073 100.178 29.2237 97.6342 29.2237C95.0915 29.2237 93.4873 27.5073 93.4873 24.7564ZM99.9533 24.7564C99.9533 22.8745 99.0885 21.7638 97.6342 21.7638C96.1799 21.7638 95.316 22.883 95.316 24.7564C95.316 26.6458 96.1799 27.7481 97.6342 27.7481C99.0885 27.7481 99.9533 26.6458 99.9533 24.7564H99.9533Z" fill="#038C73"/>
<path d="M103.262 20.3965H104.973V21.8805H105.015C105.131 21.417 105.403 21.0074 105.786 20.7205C106.169 20.4337 106.639 20.287 107.118 20.3052C107.325 20.3045 107.531 20.3269 107.733 20.372V22.046C107.472 21.9665 107.2 21.93 106.927 21.9379C106.666 21.9273 106.406 21.9732 106.165 22.0723C105.923 22.1714 105.707 22.3213 105.529 22.5119C105.351 22.7025 105.217 22.9292 105.135 23.1763C105.054 23.4235 105.027 23.6854 105.056 23.9439V29.1156H103.262L103.262 20.3965Z" fill="#038C73"/>
<path d="M116.008 26.5546C115.766 28.1374 114.221 29.2237 112.243 29.2237C109.699 29.2237 108.121 27.5242 108.121 24.7978C108.121 22.0629 109.708 20.2892 112.168 20.2892C114.587 20.2892 116.108 21.9463 116.108 24.59V25.2032H109.932V25.3113C109.904 25.6322 109.944 25.9555 110.051 26.2596C110.157 26.5638 110.327 26.8419 110.549 27.0755C110.772 27.3091 111.042 27.4928 111.341 27.6144C111.64 27.7361 111.962 27.7928 112.284 27.781C112.709 27.8206 113.134 27.7227 113.498 27.5017C113.862 27.2807 114.144 26.9486 114.304 26.5546L116.008 26.5546ZM109.941 23.9523H114.312C114.328 23.6638 114.284 23.3751 114.183 23.1043C114.082 22.8334 113.926 22.5864 113.725 22.3786C113.523 22.1708 113.281 22.0068 113.013 21.8968C112.745 21.7868 112.457 21.7332 112.168 21.7394C111.875 21.7377 111.586 21.7937 111.315 21.9042C111.045 22.0147 110.799 22.1775 110.592 22.3832C110.385 22.589 110.221 22.8335 110.109 23.1029C109.997 23.3722 109.94 23.6609 109.941 23.9523V23.9523Z" fill="#038C73"/>
<path d="M45.8499 10.5839H46.6204C46.753 10.6004 46.8876 10.5893 47.0158 10.5513C47.1439 10.5133 47.2627 10.4493 47.3648 10.3632C47.4669 10.2772 47.55 10.1709 47.6088 10.0513C47.6677 9.93161 47.7011 9.80107 47.7069 9.66791C47.7069 9.13795 47.307 8.79562 46.6289 8.79562C46.493 8.77668 46.3547 8.78509 46.2221 8.82035C46.0895 8.8556 45.9653 8.91699 45.8569 9.00089C45.7486 9.08478 45.6581 9.18949 45.591 9.30882C45.5238 9.42814 45.4813 9.55968 45.466 9.69565H44.62C44.6346 9.44882 44.6999 9.20763 44.812 8.98708C44.9241 8.76653 45.0805 8.57135 45.2715 8.4137C45.4625 8.25604 45.6841 8.13929 45.9223 8.0707C46.1605 8.00211 46.4103 7.98316 46.6562 8.01502C47.7908 8.01502 48.5896 8.64843 48.5896 9.56022C48.5923 9.86568 48.4898 10.1628 48.2993 10.402C48.1088 10.6412 47.8417 10.808 47.5428 10.8745V10.9422C47.8972 10.9579 48.231 11.1129 48.4711 11.3733C48.7113 11.6337 48.8383 11.9783 48.8245 12.3318C48.7982 12.5859 48.7214 12.8323 48.5984 13.0564C48.4755 13.2806 48.3089 13.478 48.1085 13.6371C47.908 13.7962 47.6777 13.9138 47.4311 13.983C47.1845 14.0523 46.9265 14.0717 46.6723 14.0402C46.4175 14.0748 46.1583 14.0579 45.9102 13.9906C45.6621 13.9232 45.4302 13.8067 45.2282 13.648C45.0262 13.4893 44.8583 13.2917 44.7346 13.067C44.6108 12.8422 44.5337 12.5949 44.5078 12.3398H45.367C45.4189 12.8895 45.9253 13.2441 46.6723 13.2441C47.4192 13.2441 47.9068 12.8458 47.9068 12.2843C47.9068 11.7149 47.4475 11.3641 46.6449 11.3641H45.8499V10.5839Z" fill="#038C73"/>
<path d="M49.8005 12.6746C49.8005 11.894 50.3843 11.444 51.418 11.3801L52.5959 11.3123V10.938C52.5959 10.48 52.2932 10.2214 51.7056 10.2214C51.2265 10.2214 50.8955 10.3968 50.7993 10.7034H49.9684C50.0561 9.95853 50.7597 9.48077 51.7462 9.48077C52.8364 9.48077 53.4513 10.022 53.4513 10.938V13.901H52.6242V13.2916H52.5563C52.4185 13.5102 52.225 13.6884 51.9955 13.808C51.766 13.9276 51.5088 13.9844 51.2501 13.9724C51.0676 13.9914 50.883 13.972 50.7085 13.9154C50.5339 13.8589 50.3731 13.7665 50.2366 13.6442C50.1 13.522 49.9906 13.3725 49.9155 13.2055C49.8404 13.0385 49.8013 12.8576 49.8005 12.6746ZM52.5959 12.3041V11.9415L51.5339 12.0092C50.9351 12.0492 50.6634 12.2523 50.6634 12.6346C50.6634 13.0249 51.003 13.2521 51.4698 13.2521C51.6066 13.2659 51.7448 13.2521 51.8762 13.2116C52.0075 13.171 52.1294 13.1046 52.2344 13.0161C52.3395 12.9277 52.4256 12.8191 52.4877 12.6967C52.5498 12.5744 52.5866 12.4409 52.5959 12.3041Z" fill="#038C73"/>
<path d="M55.7291 10.2848V13.9009H54.8708V9.56439H57.7342V10.2847L55.7291 10.2848Z" fill="#038C73"/>
<path d="M62.9353 11.7309C62.9353 13.1087 62.2365 13.9725 61.1387 13.9725C60.8692 13.9909 60.6001 13.9321 60.363 13.803C60.1259 13.674 59.9307 13.4801 59.8004 13.2441H59.7325V15.3428H58.8743V9.5645H59.7004V10.2812H59.7646C59.8972 10.037 60.0949 9.83411 60.3359 9.69494C60.5769 9.55578 60.8518 9.48575 61.1302 9.49258C62.2365 9.49255 62.9353 10.3526 62.9353 11.7309ZM62.0526 11.7309C62.0526 10.8149 61.6178 10.2614 60.8907 10.2614C60.1683 10.2614 59.7165 10.8266 59.7165 11.7346C59.7165 12.6384 60.1682 13.2041 60.8869 13.2041C61.6178 13.2041 62.0526 12.6507 62.0526 11.7309Z" fill="#038C73"/>
<path d="M64.0783 15.4541V14.7173C64.1712 14.729 64.2648 14.7344 64.3584 14.7332C64.5412 14.7467 64.7226 14.6924 64.8678 14.5808C65.013 14.4691 65.1117 14.3078 65.1449 14.128L65.2091 13.9169L63.635 9.56439H64.5696L65.6599 13.0089H65.7278L66.8143 9.56439H67.7244L66.1032 14.0801C65.7316 15.1353 65.3204 15.4739 64.4339 15.4739C64.3622 15.4739 64.1585 15.4659 64.0783 15.4541Z" fill="#038C73"/>
<path d="M68.3931 12.6704H69.2475C69.3315 13.0527 69.6908 13.2521 70.1935 13.2521C70.765 13.2521 71.1158 13.001 71.1158 12.6107C71.1158 12.1926 70.8008 11.9933 70.1935 11.9933H69.5427V11.3283H70.1822C70.7009 11.3283 70.9649 11.1294 70.9649 10.7669C70.9649 10.4485 70.7094 10.2054 70.1822 10.2054C69.7021 10.2054 69.3513 10.4086 69.2956 10.7509H68.4685C68.5304 10.3575 68.7445 10.0041 69.065 9.76656C69.3855 9.52904 69.7866 9.42643 70.1822 9.48079C71.2158 9.48079 71.8071 9.9468 71.8071 10.6794C71.812 10.8834 71.7464 11.0829 71.6214 11.2445C71.4965 11.4061 71.3197 11.52 71.1206 11.5672V11.635C71.3576 11.6654 71.5752 11.7816 71.732 11.9615C71.8888 12.1414 71.9739 12.3724 71.9712 12.6107C71.9712 13.4351 71.2677 13.9805 70.1935 13.9805C69.2438 13.9805 68.4723 13.5464 68.3931 12.6704Z" fill="#038C73"/>
<path d="M73.2073 13.9009V9.56439H74.058V12.5471H74.1259L76.13 9.5644H76.9807V13.9009H76.13V10.9022H76.0659L74.058 13.9009L73.2073 13.9009Z" fill="#038C73"/>
<path d="M81.667 10.2848H80.2976V13.9009H79.4384V10.2848H78.069V9.56445H81.667V10.2848Z" fill="#038C73"/>
<path d="M86.2901 12.7301C86.1732 13.1264 85.9203 13.4692 85.5757 13.6985C85.2311 13.9278 84.8167 14.0291 84.4048 13.9847C84.1183 13.9923 83.8336 13.9375 83.5704 13.8244C83.3073 13.7112 83.0719 13.5422 82.8808 13.3293C82.6897 13.1163 82.5473 12.8644 82.4636 12.5911C82.3799 12.3177 82.3568 12.0295 82.396 11.7464C82.3578 11.4624 82.3813 11.1736 82.4648 10.8994C82.5484 10.6252 82.69 10.3722 82.8801 10.1574C83.0702 9.94253 83.3044 9.77094 83.5668 9.65422C83.8292 9.53749 84.1137 9.47834 84.401 9.48079C85.6111 9.48079 86.342 10.3052 86.342 11.6669V11.9655H83.2712V12.0135C83.2576 12.1727 83.2776 12.3329 83.3298 12.4839C83.382 12.635 83.4653 12.7734 83.5744 12.8904C83.6834 13.0074 83.8158 13.1004 83.9631 13.1633C84.1103 13.2262 84.2692 13.2578 84.4293 13.2558C84.6345 13.2803 84.8423 13.2434 85.0264 13.1498C85.2104 13.0561 85.3624 12.9101 85.463 12.7301L86.2901 12.7301ZM83.2712 11.3326H85.4667C85.4776 11.1871 85.4578 11.041 85.4087 10.9036C85.3595 10.7662 85.2821 10.6406 85.1814 10.5348C85.0807 10.429 84.9589 10.3454 84.8238 10.2893C84.6888 10.2332 84.5435 10.206 84.3973 10.2092C84.2488 10.2072 84.1014 10.2349 83.9638 10.2906C83.8263 10.3464 83.7013 10.429 83.5963 10.5338C83.4914 10.6385 83.4085 10.7631 83.3527 10.9003C83.2968 11.0376 83.2691 11.1845 83.2712 11.3326H83.2712Z" fill="#038C73"/>
<path d="M89.9287 9.56439H91.8894C92.7401 9.56439 93.239 9.99419 93.239 10.6671C93.2404 10.8806 93.1681 11.0881 93.0344 11.2548C92.9006 11.4216 92.7135 11.5375 92.5044 11.5831V11.6508C92.7583 11.6668 92.9964 11.7795 93.1695 11.9655C93.3425 12.1516 93.4373 12.3968 93.4343 12.6505C93.4343 13.4071 92.8637 13.9009 91.9092 13.9009H89.9287V9.56439ZM90.7794 10.2213V11.3442H91.6301C92.1488 11.3442 92.3968 11.1453 92.3968 10.7785C92.3968 10.4404 92.1809 10.2213 91.7254 10.2213L90.7794 10.2213ZM90.7794 11.9734V13.244H91.7971C92.3045 13.244 92.5761 13.0206 92.5761 12.6106C92.5761 12.1766 92.2686 11.9734 91.6895 11.9734L90.7794 11.9734Z" fill="#038C73"/>
<rect x="0.5" y="0.5" width="135.108" height="39" rx="19.5" stroke="white"/>
</svg>
