<svg width="143" height="40" viewBox="0 0 143 40" fill="none" xmlns="http://www.w3.org/2000/svg">
<rect width="142.617" height="40" rx="20" fill="white"/>
<path d="M71.5301 21.1956C69.4015 21.1956 67.7164 22.7897 67.7164 25.0037C67.7164 27.1292 69.4015 28.8119 71.5301 28.8119C73.6587 28.8119 75.3439 27.2178 75.3439 25.0037C75.3439 22.7012 73.6587 21.1956 71.5301 21.1956ZM71.5301 27.2178C70.3771 27.2178 69.4015 26.2436 69.4015 24.9152C69.4015 23.5868 70.3771 22.6126 71.5301 22.6126C72.6831 22.6126 73.6587 23.4982 73.6587 24.9152C73.6587 26.2436 72.6831 27.2178 71.5301 27.2178ZM63.2818 21.1956C61.1531 21.1956 59.468 22.7897 59.468 25.0037C59.468 27.1292 61.1531 28.8119 63.2818 28.8119C65.4104 28.8119 67.0955 27.2178 67.0955 25.0037C67.0955 22.7012 65.4104 21.1956 63.2818 21.1956ZM63.2818 27.2178C62.1288 27.2178 61.1531 26.2436 61.1531 24.9152C61.1531 23.5868 62.1288 22.6126 63.2818 22.6126C64.4347 22.6126 65.4104 23.4982 65.4104 24.9152C65.4104 26.2436 64.4347 27.2178 63.2818 27.2178ZM53.4369 22.3469V23.941H57.2507C57.162 24.8266 56.8072 25.5351 56.3638 25.9779C55.8316 26.5093 54.9447 27.1292 53.4369 27.1292C51.0422 27.1292 49.2684 25.2694 49.2684 22.8783C49.2684 20.4871 51.1309 18.6274 53.4369 18.6274C54.6786 18.6274 55.6542 19.1587 56.3638 19.7787L57.5168 18.6274C56.5412 17.7418 55.2995 17.0333 53.5256 17.0333C50.3327 17.0333 47.5833 19.6901 47.5833 22.8783C47.5833 26.0665 50.3327 28.7233 53.5256 28.7233C55.2995 28.7233 56.5412 28.1919 57.6055 27.0406C58.6698 25.9779 59.0245 24.4724 59.0245 23.3211C59.0245 22.9668 59.0245 22.6126 58.9358 22.3469H53.4369ZM93.7031 23.5868C93.3484 22.7012 92.4615 21.1956 90.5102 21.1956C88.559 21.1956 86.9625 22.7012 86.9625 25.0037C86.9625 27.1292 88.559 28.8119 90.6876 28.8119C92.3728 28.8119 93.4371 27.7491 93.7918 27.1292L92.5501 26.2436C92.1067 26.8635 91.5745 27.3063 90.6876 27.3063C89.8007 27.3063 89.2685 26.9521 88.8251 26.155L93.8805 24.0296L93.7031 23.5868ZM88.559 24.8266C88.559 23.4096 89.712 22.6126 90.5102 22.6126C91.1311 22.6126 91.7519 22.9668 91.9293 23.4096L88.559 24.8266ZM84.3905 28.4576H86.0756V17.3875H84.3905V28.4576ZM81.7297 21.9927C81.2862 21.5499 80.5767 21.1071 79.6898 21.1071C77.8273 21.1071 76.0534 22.7897 76.0534 24.9152C76.0534 27.0406 77.7386 28.6347 79.6898 28.6347C80.5767 28.6347 81.2862 28.1919 81.641 27.7491H81.7297V28.2805C81.7297 29.6975 80.9315 30.4945 79.6898 30.4945C78.7142 30.4945 78.0046 29.786 77.8273 29.1661L76.4082 29.786C76.8516 30.7602 77.916 32.0001 79.7785 32.0001C81.7297 32.0001 83.3262 30.8488 83.3262 28.1034V21.3727H81.7297V21.9927ZM79.7785 27.2178C78.6255 27.2178 77.6499 26.2436 77.6499 24.9152C77.6499 23.5868 78.6255 22.6126 79.7785 22.6126C80.9315 22.6126 81.8184 23.5868 81.8184 24.9152C81.8184 26.2436 80.9315 27.2178 79.7785 27.2178ZM101.419 17.3875H97.4282V28.4576H99.1134V24.2953H101.419C103.282 24.2953 105.056 22.9668 105.056 20.8414C105.056 18.7159 103.282 17.3875 101.419 17.3875ZM101.508 22.7012H99.1134V18.893H101.508C102.75 18.893 103.459 19.9558 103.459 20.7528C103.371 21.727 102.661 22.7012 101.508 22.7012ZM111.708 21.1071C110.466 21.1071 109.224 21.6384 108.781 22.7897L110.289 23.4096C110.643 22.7897 111.175 22.6126 111.796 22.6126C112.683 22.6126 113.481 23.144 113.57 24.0296V24.1181C113.304 23.941 112.595 23.6753 111.885 23.6753C110.289 23.6753 108.692 24.5609 108.692 26.155C108.692 27.6606 110.022 28.6347 111.442 28.6347C112.595 28.6347 113.127 28.1034 113.57 27.572H113.659V28.4576H115.255V24.2067C115.078 22.2584 113.57 21.1071 111.708 21.1071ZM111.53 27.2178C110.998 27.2178 110.2 26.9521 110.2 26.2436C110.2 25.358 111.175 25.0923 111.974 25.0923C112.683 25.0923 113.038 25.2694 113.481 25.4466C113.304 26.5093 112.417 27.2178 111.53 27.2178ZM120.843 21.3727L118.98 26.155H118.892L116.94 21.3727H115.167L118.093 28.1034L116.408 31.8229H118.093L122.617 21.3727H120.843ZM105.943 28.4576H107.628V17.3875H105.943V28.4576Z" fill="#038C73"/>
<path d="M20.3548 8.53137C20.0887 8.79705 20 9.23986 20 9.77122V29.3432C20 29.8745 20.1774 30.3174 20.4435 30.583L20.5322 30.6716L31.53 19.69V19.6015V19.5129L20.3548 8.53137Z" fill="#038C73"/>
<path d="M35.0775 23.4097L31.4412 19.7787V19.6016V19.513L35.0775 15.882L35.1662 15.9706L39.5121 18.4503C40.7538 19.1588 40.7538 20.3101 39.5121 21.0186L35.0775 23.4097Z" fill="#038C73"/>
<path d="M35.1663 23.3212L31.4412 19.6016L20.3547 30.6717C20.7982 31.1145 21.419 31.1145 22.2173 30.7603L35.1663 23.3212Z" fill="#038C73"/>
<path d="M35.1663 15.882L22.2173 8.53142C21.419 8.08861 20.7982 8.17717 20.3547 8.61998L31.4412 19.6015L35.1663 15.882Z" fill="#038C73"/>
<path opacity="0.2" d="M35.0776 23.2326L22.2173 30.4946C21.5077 30.9374 20.8869 30.8488 20.4434 30.4946L20.3547 30.5832L20.4434 30.6717C20.8869 31.026 21.5077 31.1145 22.2173 30.6717L35.0776 23.2326Z" fill="#038C73"/>
<path opacity="0.12" d="M20.3548 30.4946C20.0887 30.2289 20 29.7861 20 29.2547V29.3433C20 29.8746 20.1774 30.3174 20.4435 30.5831V30.4946H20.3548Z" fill="#038C73"/>
<path opacity="0.12" d="M39.5122 20.7529L35.0776 23.2326L35.1663 23.3212L39.5122 20.8415C40.1331 20.4872 40.3992 20.0444 40.3992 19.6016C40.3992 20.0444 40.0444 20.3987 39.5122 20.7529Z" fill="#038C73"/>
<path opacity="0.25" d="M22.2173 8.62001L39.5123 18.4503C40.0444 18.8045 40.3992 19.1588 40.3992 19.6016C40.3992 19.1588 40.1331 18.7159 39.5123 18.3617L22.2173 8.53145C20.9756 7.82296 20 8.35432 20 9.7713V9.85986C20 8.53145 20.9756 7.91152 22.2173 8.62001Z" fill="#038C73"/>
<path d="M48.4702 14.5536H47.8494V12.7823H48.3815C48.825 12.4281 49.0911 11.7196 49.0911 10.7454V8.08862H52.6387V12.7823H53.2596V14.5536H52.6387V13.4023H48.5589V14.5536H48.4702ZM49.7119 10.7454C49.7119 11.5425 49.5345 12.251 49.1797 12.7823H51.8405V8.70855H49.6232V10.7454H49.7119Z" fill="#038C73" stroke="#038C73" stroke-width="0.2" stroke-miterlimit="10"/>
<path d="M58.4924 12.6937C57.9603 13.2251 57.3394 13.4908 56.5412 13.4908C55.743 13.4908 55.1221 13.2251 54.59 12.6937C54.0578 12.1624 53.7917 11.5424 53.7917 10.7454C53.7917 9.94834 54.0578 9.32841 54.59 8.79705C55.1221 8.26568 55.743 8 56.5412 8C57.3394 8 57.9603 8.26568 58.4924 8.79705C59.0246 9.32841 59.2907 9.94834 59.2907 10.7454C59.2907 11.5424 59.0246 12.1624 58.4924 12.6937ZM55.1221 12.2509C55.4769 12.6052 56.0091 12.8708 56.5412 12.8708C57.0734 12.8708 57.6055 12.6937 57.9603 12.2509C58.315 11.8967 58.5811 11.3653 58.5811 10.7454C58.5811 10.1255 58.4037 9.5941 57.9603 9.23985C57.6055 8.88561 57.0734 8.61993 56.5412 8.61993C56.0091 8.61993 55.4769 8.79705 55.1221 9.23985C54.7674 9.5941 54.5013 10.1255 54.5013 10.7454C54.5013 11.3653 54.6787 11.8967 55.1221 12.2509Z" fill="#038C73" stroke="#038C73" stroke-width="0.2" stroke-miterlimit="10"/>
<path d="M62.7497 13.4908C61.9515 13.4908 61.3306 13.2251 60.7985 12.6937C60.2663 12.1624 60.0002 11.5424 60.0002 10.7454C60.0002 9.94834 60.2663 9.32841 60.7985 8.79705C61.3306 8.26568 61.9515 8 62.7497 8C63.5479 8 64.1688 8.26568 64.7009 8.88561L64.2575 9.32841C63.9027 8.88561 63.3705 8.61993 62.7497 8.61993C62.1289 8.61993 61.6854 8.79705 61.2419 9.23985C60.7985 9.5941 60.6211 10.1255 60.6211 10.7454C60.6211 11.3653 60.7985 11.8967 61.2419 12.2509C61.5967 12.6052 62.1289 12.8708 62.7497 12.8708C63.3705 12.8708 63.9027 12.6052 64.3462 12.0738L64.7896 12.5166C64.5235 12.7823 64.2575 13.048 63.9027 13.2251C63.5479 13.4022 63.1932 13.4908 62.7497 13.4908Z" fill="#038C73" stroke="#038C73" stroke-width="0.2" stroke-miterlimit="10"/>
<path d="M67.6277 13.4023H66.9182V8.70855H65.4104V8.08862H69.0468V8.70855H67.539V13.4023H67.6277Z" fill="#038C73" stroke="#038C73" stroke-width="0.2" stroke-miterlimit="10"/>
<path d="M73.7475 8.08862L71.7075 12.6052C71.4415 13.2252 70.998 13.5794 70.4658 13.5794C70.2885 13.5794 70.1111 13.5794 69.9337 13.4908L70.1111 12.8709C70.1998 12.9595 70.3772 12.9595 70.4658 12.9595C70.6432 12.9595 70.7319 12.9595 70.8206 12.8709C70.9093 12.7823 70.998 12.6938 71.0867 12.5167L71.2641 12.0739L69.4902 8.17718H70.2885L71.6188 11.1883L72.9492 8.08862H73.7475Z" fill="#038C73" stroke="#038C73" stroke-width="0.2" stroke-miterlimit="10"/>
<path d="M74.5457 13.4023V8.08862H78.3594V13.4023H77.6499V8.70855H75.1665V13.4023H74.5457Z" fill="#038C73" stroke="#038C73" stroke-width="0.2" stroke-miterlimit="10"/>
<path d="M79.6011 13.4023V8.08862H80.3106V10.3912H82.9714V8.08862H83.6809V13.4023H82.9714V11.0111H80.3106V13.4023H79.6011Z" fill="#038C73" stroke="#038C73" stroke-width="0.2" stroke-miterlimit="10"/>
<path d="M89.2685 12.6937C88.7364 13.2251 88.1156 13.4908 87.3173 13.4908C86.5191 13.4908 85.8982 13.2251 85.3661 12.6937C84.8339 12.1624 84.5679 11.5424 84.5679 10.7454C84.5679 9.94834 84.8339 9.32841 85.3661 8.79705C85.8982 8.26568 86.5191 8 87.3173 8C88.1156 8 88.7364 8.26568 89.2685 8.79705C89.8007 9.32841 90.0668 9.94834 90.0668 10.7454C89.9781 11.5424 89.712 12.1624 89.2685 12.6937ZM85.8096 12.2509C86.1643 12.6052 86.6965 12.8708 87.2286 12.8708C87.7608 12.8708 88.2929 12.6937 88.6477 12.2509C89.0025 11.8967 89.2685 11.3653 89.2685 10.7454C89.2685 10.1255 89.0912 9.5941 88.6477 9.23985C88.2929 8.88561 87.7608 8.61993 87.2286 8.61993C86.6965 8.61993 86.1643 8.79705 85.8096 9.23985C85.4548 9.5941 85.1887 10.1255 85.1887 10.7454C85.1887 11.3653 85.4548 11.8967 85.8096 12.2509Z" fill="#038C73" stroke="#038C73" stroke-width="0.2" stroke-miterlimit="10"/>
<path d="M92.8163 13.4023V8.08862H94.7675C95.211 8.08862 95.5657 8.26574 95.8318 8.53143C96.0979 8.79711 96.2753 9.15135 96.2753 9.5056C96.2753 9.77128 96.1866 9.9484 96.0979 10.2141C96.0092 10.3912 95.8318 10.5683 95.5657 10.6569C95.8318 10.7454 96.0092 10.9226 96.1866 11.0997C96.364 11.2768 96.4527 11.5425 96.4527 11.8967C96.4527 12.3395 96.2753 12.6938 96.0092 12.9595C95.6544 13.2252 95.2997 13.4023 94.8562 13.4023H92.8163ZM93.5258 10.3912H94.7675C95.0336 10.3912 95.211 10.3026 95.3884 10.1255C95.5657 9.9484 95.6544 9.77128 95.6544 9.59416C95.6544 9.41704 95.477 9.15135 95.3884 8.97423C95.211 8.79711 95.0336 8.70855 94.7675 8.70855H93.5258V10.3912ZM93.5258 12.7824H94.9449C95.211 12.7824 95.3883 12.6938 95.5657 12.5167C95.7431 12.3395 95.8318 12.1624 95.8318 11.8967C95.8318 11.7196 95.7431 11.4539 95.5657 11.2768C95.3883 11.0997 95.211 11.0111 94.9449 11.0111H93.6145V12.7824H93.5258Z" fill="#038C73" stroke="#038C73" stroke-width="0.2" stroke-miterlimit="10"/>
</svg>
